<svg xmlns="http://www.w3.org/2000/svg" viewBox="0 0 32 32">
  <rect width="32" height="32" rx="7" fill="#0f0d15"/>
  <path d="M16 6.5c-4.8 0-8.7 3.3-8.7 7.6 0 2.4 1.3 4.6 3.3 6-0.2 0.8-0.8 1.9-2 2.9-0.3 0.3-0.2 0.7 0.2 0.8 2.5 0.4 4.6-0.6 5.9-1.7 0.4 0.1 0.9 0.1 1.3 0.1 4.8 0 8.7-3.3 8.7-7.6C24.7 9.8 20.8 6.5 16 6.5z" fill="#9a82db"/>
  <circle cx="12.5" cy="14" r="1.2" fill="#0f0d15"/>
  <circle cx="16" cy="14" r="1.2" fill="#0f0d15"/>
  <circle cx="19.5" cy="14" r="1.2" fill="#0f0d15"/>
</svg>
